<svg width="72" height="72" viewBox="0 0 72 72" fill="none" xmlns="http://www.w3.org/2000/svg">
<path d="M61.461 51.4202L49.266 40.3322C48.6895 39.8083 47.932 39.5289 47.1534 39.5529C46.3748 39.577 45.636 39.9027 45.093 40.4612L37.914 47.8442C36.186 47.5142 32.712 46.4312 29.136 42.8642C25.56 39.2852 24.477 35.8022 24.156 34.0862L31.533 26.9042C32.0922 26.3616 32.4184 25.6227 32.4425 24.8438C32.4666 24.065 32.1866 23.3074 31.662 22.7312L20.577 10.5392C20.0521 9.9613 19.3226 9.61074 18.5435 9.56201C17.7643 9.51327 16.9968 9.7702 16.404 10.2782L9.89399 15.8612C9.37533 16.3818 9.06575 17.0746 9.02399 17.8082C8.97899 18.5582 8.12099 36.3242 21.897 50.1062C33.915 62.1212 48.969 63.0002 53.115 63.0002C53.721 63.0002 54.093 62.9822 54.192 62.9762C54.9255 62.9352 55.618 62.6242 56.136 62.1032L61.716 55.5902C62.226 54.9993 62.4849 54.2324 62.4372 53.4533C62.3896 52.6742 62.0392 51.9446 61.461 51.4202Z" fill="#60B2FF"/>
</svg>
