<svg width="72" height="72" viewBox="0 0 72 72" fill="none" xmlns="http://www.w3.org/2000/svg">
<g clip-path="url(#clip0_64_47)">
<path d="M47.0497 0H24.948C4.77899 0 -0.0022583 4.78125 -0.0022583 24.9502V47.052C-0.0022583 67.221 4.77899 72.0023 24.948 72.0023H47.0497C67.2187 72.0023 72 67.221 72 47.052V24.9502C72 4.78125 67.1715 0 47.0497 0ZM58.1242 51.363H52.8975C50.9175 51.363 50.3077 49.7925 46.746 46.1835C43.6522 43.1842 42.282 42.786 41.5192 42.786C40.4415 42.786 40.1355 43.0898 40.1355 44.568V49.2907C40.1355 50.5575 39.7372 51.318 36.3847 51.318C30.8407 51.318 24.6892 47.9655 20.376 41.7195C13.8712 32.5665 12.0915 25.7108 12.0915 24.2932C12.0915 23.5305 12.3952 22.8172 13.86 22.8172H19.098C20.4232 22.8172 20.9272 23.427 21.4425 24.8445C24.0322 32.3213 28.3455 38.871 30.1252 38.871C30.7822 38.871 31.086 38.5672 31.086 36.891V29.169C30.8857 25.6073 29.0115 25.3012 29.0115 24.0367C29.0115 23.427 29.5155 22.8172 30.3232 22.8172H38.5605C39.6742 22.8172 40.0837 23.427 40.0837 24.7388V35.1562C40.0837 36.2812 40.5877 36.6795 40.8915 36.6795C41.5485 36.6795 42.111 36.2812 43.3282 35.0618C47.0902 30.843 49.7857 24.3383 49.7857 24.3383C50.1367 23.5755 50.7465 22.8623 52.0717 22.8623H57.3097C58.8802 22.8623 59.2312 23.67 58.8802 24.795C58.2232 27.8415 51.813 36.8888 51.813 36.8888C51.2617 37.8022 51.0502 38.2005 51.813 39.2197C52.3755 39.9825 54.2047 41.5643 55.422 42.9818C57.6607 45.5243 59.382 47.6572 59.841 49.1333C60.3562 50.598 59.5957 51.3607 58.1175 51.3607L58.1242 51.363Z" fill="#60B2FF"/>
</g>
<defs>
<clipPath id="clip0_64_47">
<rect width="72" height="72" fill="white"/>
</clipPath>
</defs>
</svg>
