<svg width="150" height="150" viewBox="0 0 150 150" fill="none" xmlns="http://www.w3.org/2000/svg">
<circle cx="75" cy="75" r="75" fill="#FADCC4"/>
<path fill-rule="evenodd" clip-rule="evenodd" d="M85.796 62.069C93.1697 60.2717 98 53.8984 98 46.3332C98 42.797 96.5777 39.4057 94.0459 36.9052C91.5142 34.4047 88.0804 33 84.5 33C80.9196 33 77.4858 34.4047 74.9541 36.9052C72.4223 39.4057 71 42.797 71 46.3332C71 53.8984 75.8303 60.2717 83.204 62.069L82.5452 63.3677C82.5055 63.4461 82.4818 63.5315 82.4755 63.619C82.4692 63.7065 82.4804 63.7943 82.5085 63.8775C82.5652 64.0456 82.6872 64.1845 82.8476 64.2637C83.008 64.3429 83.1937 64.3559 83.3638 64.2999C83.534 64.2439 83.6746 64.1234 83.7548 63.965L83.8628 63.7517C83.8871 64.205 83.9276 64.5917 84.0005 64.9517C84.1841 65.869 84.5621 66.6103 85.2101 67.8903L85.2452 67.965C85.8176 69.0903 85.7366 70.2316 85.3802 71.2876C85.0157 72.3596 84.392 73.2902 83.9384 73.9622C83.8389 74.1093 83.8026 74.2895 83.8375 74.463C83.8724 74.6365 83.9758 74.7892 84.1247 74.8875C84.2736 74.9859 84.456 75.0217 84.6317 74.9872C84.8074 74.9527 84.9621 74.8507 85.0616 74.7035L85.0724 74.6849C85.5206 74.0236 86.2361 72.9622 86.66 71.7116C87.092 70.4343 87.2324 68.9089 86.4548 67.3676C85.7582 65.9943 85.4693 65.4156 85.3235 64.6903C85.2743 64.4357 85.2409 64.1783 85.2236 63.9197L85.2452 63.965C85.3254 64.1234 85.466 64.2439 85.6362 64.2999C85.8063 64.3559 85.992 64.3429 86.1524 64.2637C86.3128 64.1845 86.4348 64.0456 86.4915 63.8775C86.5482 63.7095 86.535 63.5261 86.4548 63.3677L85.796 62.069ZM74.6504 41.9492C75.4121 40.2832 76.5941 38.8382 78.0833 37.7526C79.5725 36.667 81.3189 35.9772 83.1554 35.7493C83.8898 35.6586 84.5 36.264 84.5 37C84.5 37.7359 83.8898 38.3226 83.1554 38.4453C80.5904 38.8773 78.4331 40.5253 77.2883 42.7572C77.1619 43.0219 76.9639 43.247 76.7161 43.4075C76.4684 43.5679 76.1805 43.6576 75.8843 43.6666C74.9501 43.6666 74.267 42.7892 74.6504 41.9492Z" fill="#4B6F7E"/>
<path fill-rule="evenodd" clip-rule="evenodd" d="M66.796 54.069C74.1697 52.2717 79 45.8984 79 38.3332C79 34.797 77.5777 31.4057 75.0459 28.9052C72.5142 26.4047 69.0804 25 65.5 25C61.9196 25 58.4858 26.4047 55.9541 28.9052C53.4223 31.4057 52 34.797 52 38.3332C52 45.8984 56.8303 52.2717 64.204 54.069L63.5452 55.3677C63.5055 55.4461 63.4818 55.5315 63.4755 55.619C63.4692 55.7065 63.4804 55.7943 63.5085 55.8775C63.5652 56.0456 63.6872 56.1845 63.8476 56.2637C64.008 56.3429 64.1937 56.3559 64.3638 56.2999C64.534 56.2439 64.6746 56.1234 64.7548 55.965L64.8628 55.7517C64.8871 56.205 64.9276 56.5917 65.0005 56.9517C65.1841 57.869 65.5621 58.6103 66.2101 59.8903L66.2452 59.965C66.8176 61.0903 66.7366 62.2316 66.3802 63.2876C66.0157 64.3596 65.392 65.2902 64.9384 65.9622C64.8389 66.1093 64.8026 66.2895 64.8375 66.463C64.8724 66.6365 64.9758 66.7892 65.1247 66.8875C65.2736 66.9859 65.456 67.0217 65.6317 66.9872C65.8074 66.9527 65.9621 66.8507 66.0616 66.7035L66.0724 66.6849C66.5206 66.0236 67.2361 64.9622 67.66 63.7116C68.092 62.4343 68.2324 60.9089 67.4548 59.3676C66.7582 57.9943 66.4693 57.4156 66.3235 56.6903C66.2743 56.4357 66.2409 56.1783 66.2236 55.9197L66.2452 55.965C66.3254 56.1234 66.466 56.2439 66.6362 56.2999C66.8063 56.3559 66.992 56.3429 67.1524 56.2637C67.3128 56.1845 67.4348 56.0456 67.4915 55.8775C67.5482 55.7095 67.535 55.5261 67.4548 55.3677L66.796 54.069ZM55.6504 33.9492C56.4121 32.2832 57.5941 30.8382 59.0833 29.7526C60.5725 28.667 62.3189 27.9772 64.1554 27.7493C64.8898 27.6586 65.5 28.264 65.5 29C65.5 29.7359 64.8898 30.3226 64.1554 30.4453C61.5904 30.8773 59.4331 32.5253 58.2883 34.7572C58.1619 35.0219 57.9639 35.247 57.7161 35.4075C57.4684 35.5679 57.1805 35.6576 56.8843 35.6666C55.9501 35.6666 55.267 34.7892 55.6504 33.9492Z" fill="#4B6F7E"/>
<path d="M57.375 82.75V100H52.775V82.75H57.375ZM40.175 82.75V100H35.6V82.75H40.175ZM53.85 96.85V100H39.95V96.85H53.85ZM48.775 82.75V100H44.2V82.75H48.775ZM69.5006 82.75C69.8839 82.75 70.2173 82.8583 70.5006 83.075C70.8006 83.2917 71.0006 83.5917 71.1006 83.975L75.8256 100H71.0256L68.0006 88.1C67.9339 87.8167 67.8756 87.5167 67.8256 87.2C67.7756 86.8667 67.7256 86.5583 67.6756 86.275H67.0006C66.9673 86.5583 66.9173 86.8667 66.8506 87.2C66.8006 87.5167 66.7423 87.8167 66.6756 88.1L63.6506 100H58.8506L63.5756 83.975C63.6756 83.5917 63.8673 83.2917 64.1506 83.075C64.4506 82.8583 64.7923 82.75 65.1756 82.75H69.5006ZM71.8756 92.525V95.9H62.8006V92.525H71.8756ZM84.2742 82.5C86.0076 82.5 87.3576 82.675 88.3242 83.025C89.3076 83.3583 90.0076 83.9417 90.4242 84.775C90.8409 85.6083 91.0492 86.775 91.0492 88.275C91.0492 89.775 90.8492 90.9417 90.4492 91.775C90.0659 92.5917 89.4242 93.1667 88.5242 93.5C87.6242 93.8333 86.4159 94 84.8992 94C84.0992 94 83.2992 93.9667 82.4992 93.9C81.7159 93.8167 80.9826 93.7167 80.2992 93.6C79.6159 93.4667 79.0326 93.3333 78.5492 93.2C78.0659 93.05 77.7326 92.925 77.5492 92.825L77.6242 90.625C78.6576 90.625 79.7326 90.625 80.8492 90.625C81.9659 90.625 83.0659 90.625 84.1492 90.625C84.7326 90.6083 85.1826 90.5417 85.4992 90.425C85.8159 90.2917 86.0326 90.0583 86.1492 89.725C86.2826 89.375 86.3492 88.8917 86.3492 88.275C86.3492 87.6417 86.2826 87.15 86.1492 86.8C86.0326 86.45 85.8159 86.2167 85.4992 86.1C85.1826 85.9667 84.7326 85.9 84.1492 85.9C82.5326 85.9 81.1492 85.9083 79.9992 85.925C78.8492 85.9417 78.0659 85.975 77.6492 86.025L77.2742 82.75C78.0076 82.6667 78.6992 82.6083 79.3492 82.575C79.9992 82.5417 80.7076 82.525 81.4742 82.525C82.2409 82.5083 83.1742 82.5 84.2742 82.5ZM81.9742 82.75V100H77.2742V82.75H81.9742ZM110.618 82.75C111.401 82.75 111.801 83.15 111.818 83.95L112.493 100H109.518L108.943 85.225H108.443L105.218 96.8C105.084 97.4833 104.659 97.825 103.943 97.825H101.743C101.026 97.825 100.593 97.4833 100.443 96.8L97.1928 85.225H96.7428L96.1928 100H93.2178L93.8678 83.95C93.9011 83.15 94.3011 82.75 95.0678 82.75H98.1928C98.8594 82.75 99.2761 83.0917 99.4428 83.775L102.093 93.225C102.209 93.625 102.301 94.025 102.368 94.425C102.451 94.825 102.543 95.225 102.643 95.625H103.018C103.118 95.225 103.209 94.825 103.293 94.425C103.376 94.025 103.468 93.6167 103.568 93.2L106.218 83.775C106.368 83.0917 106.793 82.75 107.493 82.75H110.618Z" fill="#B77B25"/>
<path d="M33.068 113.576C33.46 113.576 33.792 113.588 34.064 113.612C34.344 113.628 34.6 113.656 34.832 113.696C35.064 113.736 35.304 113.792 35.552 113.864L35.408 115.208C35.144 115.192 34.9 115.18 34.676 115.172C34.46 115.164 34.224 115.16 33.968 115.16C33.72 115.152 33.42 115.148 33.068 115.148C32.66 115.148 32.34 115.228 32.108 115.388C31.884 115.548 31.724 115.828 31.628 116.228C31.532 116.62 31.484 117.164 31.484 117.86C31.484 118.556 31.532 119.104 31.628 119.504C31.724 119.896 31.884 120.172 32.108 120.332C32.34 120.492 32.66 120.572 33.068 120.572C33.62 120.572 34.084 120.564 34.46 120.548C34.836 120.532 35.208 120.504 35.576 120.464L35.732 121.808C35.348 121.928 34.956 122.012 34.556 122.06C34.156 122.116 33.66 122.144 33.068 122.144C32.212 122.144 31.524 122.008 31.004 121.736C30.492 121.456 30.12 121.004 29.888 120.38C29.664 119.756 29.552 118.916 29.552 117.86C29.552 116.804 29.664 115.964 29.888 115.34C30.12 114.716 30.492 114.268 31.004 113.996C31.524 113.716 32.212 113.576 33.068 113.576ZM40.5787 113.72V122H38.7427V113.72H40.5787ZM43.0747 113.72V115.16H36.2587V113.72H43.0747ZM50.3654 113.72L48.3494 119.852C48.2054 120.3 48.0454 120.688 47.8694 121.016C47.7014 121.344 47.4894 121.604 47.2334 121.796C46.9854 121.98 46.6654 122.092 46.2734 122.132C46.0894 122.148 45.8694 122.148 45.6134 122.132C45.3654 122.116 45.1174 122.092 44.8694 122.06C44.6294 122.028 44.4214 121.996 44.2454 121.964L44.4494 120.68C44.8094 120.696 45.1014 120.708 45.3254 120.716C45.5574 120.716 45.7454 120.692 45.8894 120.644C46.0334 120.596 46.1494 120.516 46.2374 120.404C46.3334 120.292 46.4214 120.132 46.5014 119.924L46.7654 119.036L47.0414 118.376L48.4814 113.72H50.3654ZM45.2414 113.72L46.5374 118.124C46.5694 118.228 46.6494 118.28 46.7774 118.28H47.2814L47.7254 119.648H46.1174C45.8134 119.648 45.5814 119.572 45.4214 119.42C45.2614 119.268 45.1414 119.06 45.0614 118.796L43.3574 113.72H45.2414ZM57.1722 113.72V122H55.3362V115.004H54.2442C54.0122 115.004 53.8402 115.06 53.7282 115.172C53.6162 115.284 53.5522 115.464 53.5362 115.712C53.4882 116.312 53.4322 116.856 53.3682 117.344C53.3042 117.832 53.2242 118.284 53.1282 118.7C53.0402 119.108 52.9282 119.496 52.7922 119.864C52.6642 120.224 52.5082 120.58 52.3242 120.932C52.1402 121.276 51.9242 121.632 51.6762 122H50.1282C50.5122 121.304 50.8162 120.596 51.0402 119.876C51.2642 119.148 51.4362 118.412 51.5562 117.668C51.6762 116.916 51.7642 116.164 51.8202 115.412C51.8602 114.908 52.0442 114.5 52.3722 114.188C52.7082 113.876 53.1482 113.72 53.6922 113.72H57.1722ZM51.3162 121.916L51.1722 123.812H49.8522V121.916H51.3162ZM58.2522 120.716V122H49.8522V120.716H58.2522ZM58.2522 121.916V123.812H56.9442L56.8002 121.916H58.2522ZM66.2115 113.72V122H64.4595V117.08C64.4595 116.896 64.4675 116.712 64.4835 116.528C64.4995 116.336 64.5235 116.148 64.5555 115.964H64.4835C64.4195 116.156 64.3475 116.344 64.2675 116.528C64.1875 116.704 64.1035 116.88 64.0155 117.056L61.1715 122H59.3835V113.72H61.1355V118.544C61.1355 118.728 61.1235 118.92 61.0995 119.12C61.0835 119.312 61.0635 119.508 61.0395 119.708H61.0995C61.1715 119.516 61.2475 119.328 61.3275 119.144C61.4155 118.96 61.5075 118.784 61.6035 118.616L64.4235 113.72H66.2115ZM70.7702 113.6C71.2582 113.6 71.6742 113.604 72.0182 113.612C72.3622 113.612 72.6782 113.62 72.9662 113.636C73.2542 113.652 73.5582 113.68 73.8782 113.72L73.7102 115.04C73.5262 115.016 73.1782 115 72.6662 114.992C72.1622 114.984 71.5422 114.98 70.8062 114.98C70.5022 114.98 70.2622 115.016 70.0862 115.088C69.9102 115.16 69.7822 115.284 69.7022 115.46C69.6302 115.628 69.5942 115.872 69.5942 116.192C69.5942 116.48 69.6262 116.716 69.6902 116.9C69.7622 117.084 69.8862 117.22 70.0622 117.308C70.2382 117.388 70.4782 117.428 70.7822 117.428H73.6142L73.6502 118.784C73.4982 118.784 73.3422 118.788 73.1822 118.796C73.0222 118.796 72.8342 118.8 72.6182 118.808C72.4102 118.808 72.1582 118.808 71.8622 118.808C71.5742 118.808 71.2302 118.808 70.8302 118.808C70.5902 118.808 70.4022 118.86 70.2662 118.964C70.1302 119.068 70.0262 119.256 69.9542 119.528L69.3422 122H67.4102L68.1062 119.456C68.1702 119.168 68.2702 118.94 68.4062 118.772C68.5502 118.604 68.7022 118.48 68.8622 118.4C69.0302 118.312 69.1862 118.256 69.3302 118.232L69.3182 118.16C68.9262 118.112 68.6142 117.996 68.3822 117.812C68.1582 117.62 67.9942 117.376 67.8902 117.08C67.7942 116.784 67.7462 116.452 67.7462 116.084C67.7462 115.46 67.8502 114.968 68.0582 114.608C68.2662 114.248 68.5942 113.992 69.0422 113.84C69.4902 113.68 70.0662 113.6 70.7702 113.6ZM73.8782 113.72V122H72.0422V113.72H73.8782ZM88.1521 113.72V122H86.3641V113.72H88.1521ZM79.9801 113.72V122H78.1921V113.72H79.9801ZM86.8081 120.716V122H79.8841L79.8721 120.716H86.8081ZM84.0601 113.72V122H82.2841V113.72H84.0601ZM93.7997 113.72C93.9517 113.72 94.0837 113.764 94.1957 113.852C94.3157 113.94 94.3957 114.056 94.4357 114.2L96.8357 122H94.9637L93.2717 115.916C93.2397 115.78 93.2077 115.644 93.1757 115.508C93.1437 115.364 93.1157 115.228 93.0917 115.1H92.7677C92.7437 115.228 92.7157 115.364 92.6837 115.508C92.6597 115.644 92.6277 115.78 92.5877 115.916L90.8957 122H89.0117L91.4237 114.2C91.4637 114.056 91.5397 113.94 91.6517 113.852C91.7717 113.764 91.9077 113.72 92.0597 113.72H93.7997ZM95.0717 118.436V119.816H90.7757V118.436H95.0717ZM100.896 113.6C101.664 113.6 102.268 113.68 102.708 113.84C103.148 114 103.46 114.276 103.644 114.668C103.836 115.06 103.932 115.608 103.932 116.312C103.932 117.016 103.84 117.564 103.656 117.956C103.48 118.348 103.188 118.624 102.78 118.784C102.372 118.936 101.82 119.012 101.124 119.012C100.756 119.012 100.396 118.996 100.044 118.964C99.6916 118.932 99.3636 118.892 99.0596 118.844C98.7556 118.796 98.4956 118.748 98.2796 118.7C98.0636 118.644 97.9156 118.592 97.8356 118.544L97.8716 117.632C98.3436 117.632 98.8316 117.632 99.3356 117.632C99.8476 117.632 100.352 117.632 100.848 117.632C101.168 117.624 101.416 117.584 101.592 117.512C101.776 117.44 101.904 117.308 101.976 117.116C102.056 116.924 102.096 116.656 102.096 116.312C102.096 115.96 102.056 115.688 101.976 115.496C101.904 115.304 101.776 115.172 101.592 115.1C101.416 115.02 101.168 114.98 100.848 114.98C100.112 114.98 99.4796 114.984 98.9516 114.992C98.4236 115 98.0676 115.016 97.8836 115.04L97.7036 113.72C98.0396 113.68 98.3556 113.652 98.6516 113.636C98.9476 113.62 99.2676 113.612 99.6116 113.612C99.9636 113.604 100.392 113.6 100.896 113.6ZM99.5396 113.72V122H97.7036V113.72H99.5396ZM108.421 113.552C109.077 113.552 109.633 113.624 110.089 113.768C110.545 113.904 110.909 114.136 111.181 114.464C111.461 114.784 111.665 115.224 111.793 115.784C111.921 116.336 111.985 117.028 111.985 117.86C111.985 118.692 111.921 119.388 111.793 119.948C111.665 120.5 111.461 120.94 111.181 121.268C110.909 121.588 110.545 121.82 110.089 121.964C109.633 122.1 109.077 122.168 108.421 122.168C107.765 122.168 107.209 122.1 106.753 121.964C106.297 121.82 105.929 121.588 105.649 121.268C105.369 120.94 105.165 120.5 105.037 119.948C104.909 119.388 104.845 118.692 104.845 117.86C104.845 117.028 104.909 116.336 105.037 115.784C105.165 115.224 105.369 114.784 105.649 114.464C105.929 114.136 106.297 113.904 106.753 113.768C107.209 113.624 107.765 113.552 108.421 113.552ZM108.421 115.004C107.997 115.004 107.665 115.088 107.425 115.256C107.193 115.424 107.025 115.716 106.921 116.132C106.825 116.54 106.777 117.116 106.777 117.86C106.777 118.596 106.825 119.172 106.921 119.588C107.025 120.004 107.193 120.296 107.425 120.464C107.665 120.632 107.997 120.716 108.421 120.716C108.837 120.716 109.161 120.632 109.393 120.464C109.633 120.296 109.801 120.004 109.897 119.588C110.001 119.172 110.053 118.596 110.053 117.86C110.053 117.116 110.001 116.54 109.897 116.132C109.801 115.716 109.633 115.424 109.393 115.256C109.161 115.088 108.837 115.004 108.421 115.004ZM116.551 113.624C117.271 113.624 117.843 113.688 118.267 113.816C118.699 113.936 119.011 114.152 119.203 114.464C119.395 114.776 119.491 115.216 119.491 115.784C119.491 116.376 119.375 116.828 119.143 117.14C118.919 117.444 118.547 117.62 118.027 117.668V117.74C118.667 117.796 119.115 118.012 119.371 118.388C119.627 118.756 119.755 119.272 119.755 119.936C119.755 120.504 119.655 120.944 119.455 121.256C119.263 121.568 118.959 121.788 118.543 121.916C118.135 122.036 117.599 122.096 116.935 122.096C116.399 122.096 115.931 122.092 115.531 122.084C115.139 122.084 114.775 122.076 114.439 122.06C114.103 122.044 113.759 122.024 113.407 122L113.587 120.728C113.779 120.736 114.147 120.744 114.691 120.752C115.243 120.76 115.883 120.764 116.611 120.764C116.947 120.764 117.211 120.732 117.403 120.668C117.595 120.604 117.727 120.488 117.799 120.32C117.879 120.144 117.919 119.896 117.919 119.576C117.919 119.232 117.879 118.972 117.799 118.796C117.719 118.612 117.579 118.484 117.379 118.412C117.187 118.34 116.919 118.3 116.575 118.292H113.575V117.128H116.551C116.847 117.12 117.079 117.088 117.247 117.032C117.423 116.976 117.547 116.868 117.619 116.708C117.691 116.548 117.727 116.324 117.727 116.036C117.727 115.74 117.687 115.516 117.607 115.364C117.535 115.204 117.407 115.096 117.223 115.04C117.039 114.984 116.783 114.956 116.455 114.956C116.007 114.956 115.611 114.956 115.267 114.956C114.923 114.956 114.615 114.96 114.343 114.968C114.071 114.968 113.819 114.976 113.587 114.992L113.407 113.72C113.727 113.688 114.035 113.668 114.331 113.66C114.635 113.644 114.963 113.636 115.315 113.636C115.667 113.628 116.079 113.624 116.551 113.624ZM115.207 113.72V122H113.407V113.72H115.207Z" fill="#B77B25"/>
</svg>
