<svg width="289" height="112" viewBox="0 0 289 112" fill="none" xmlns="http://www.w3.org/2000/svg">
<path d="M6.48426 4.4206C6.77829 1.90041 8.9133 0 11.4506 0H24V60H5.61725C2.62622 60 0.304328 57.3915 0.65093 54.4206L6.48426 4.4206Z" fill="#2E363E"/>
<rect width="241" height="60" transform="translate(24)" fill="#2E363E"/>
<path d="M29.2906 28.448H37.9306V30.488H29.2906V28.448ZM29.5066 35.912H39.2986V38H27.1066V21.2H38.9626V23.288H29.5066V35.912ZM41.9756 38.192C41.7356 38.192 41.4956 38.176 41.2556 38.144C41.0156 38.112 40.7516 38.064 40.4636 38L40.6316 35.864C40.8876 35.928 41.1436 35.96 41.3996 35.96C42.1036 35.96 42.6636 35.68 43.0796 35.12C43.4956 34.56 43.7996 33.712 43.9916 32.576C44.1996 31.44 44.3356 30.008 44.3996 28.28L44.6636 21.2H56.4956V38H54.1436V22.664L54.7196 23.288H46.1996L46.7276 22.64L46.5356 28.208C46.4876 29.872 46.3756 31.328 46.1996 32.576C46.0236 33.824 45.7596 34.864 45.4076 35.696C45.0556 36.528 44.5996 37.152 44.0396 37.568C43.4956 37.984 42.8076 38.192 41.9756 38.192ZM63.6125 28.448H72.2525V30.488H63.6125V28.448ZM63.8285 35.912H73.6205V38H61.4285V21.2H73.2845V23.288H63.8285V35.912ZM89.1374 21.2H91.5374V38H89.1374V21.2ZM79.4894 38H77.0894V21.2H79.4894V38ZM89.3534 30.512H79.2494V28.424H89.3534V30.512ZM94.1489 38L101.757 21.2H104.133L111.765 38H109.245L102.453 22.544H103.413L96.6209 38H94.1489ZM97.3889 33.8L98.0369 31.88H107.493L108.189 33.8H97.3889ZM120.51 38V21.2H134.982V38H132.63V22.664L133.206 23.288H122.286L122.886 22.664V38H120.51ZM147.481 38.192C146.201 38.192 145.009 37.976 143.905 37.544C142.817 37.112 141.873 36.512 141.073 35.744C140.273 34.96 139.649 34.048 139.201 33.008C138.753 31.968 138.529 30.832 138.529 29.6C138.529 28.368 138.753 27.232 139.201 26.192C139.649 25.152 140.273 24.248 141.073 23.48C141.873 22.696 142.817 22.088 143.905 21.656C144.993 21.224 146.185 21.008 147.481 21.008C148.761 21.008 149.937 21.224 151.009 21.656C152.097 22.072 153.041 22.672 153.841 23.456C154.657 24.224 155.281 25.128 155.713 26.168C156.161 27.208 156.385 28.352 156.385 29.6C156.385 30.848 156.161 31.992 155.713 33.032C155.281 34.072 154.657 34.984 153.841 35.768C153.041 36.536 152.097 37.136 151.009 37.568C149.937 37.984 148.761 38.192 147.481 38.192ZM147.481 36.056C148.409 36.056 149.265 35.896 150.049 35.576C150.849 35.256 151.537 34.808 152.113 34.232C152.705 33.64 153.161 32.952 153.481 32.168C153.817 31.384 153.985 30.528 153.985 29.6C153.985 28.672 153.817 27.816 153.481 27.032C153.161 26.248 152.705 25.568 152.113 24.992C151.537 24.4 150.849 23.944 150.049 23.624C149.265 23.304 148.409 23.144 147.481 23.144C146.537 23.144 145.665 23.304 144.865 23.624C144.081 23.944 143.393 24.4 142.801 24.992C142.209 25.568 141.745 26.248 141.409 27.032C141.089 27.816 140.929 28.672 140.929 29.6C140.929 30.528 141.089 31.384 141.409 32.168C141.745 32.952 142.209 33.64 142.801 34.232C143.393 34.808 144.081 35.256 144.865 35.576C145.665 35.896 146.537 36.056 147.481 36.056ZM158.704 38.192C158.464 38.192 158.224 38.176 157.984 38.144C157.744 38.112 157.48 38.064 157.192 38L157.36 35.864C157.616 35.928 157.872 35.96 158.128 35.96C158.832 35.96 159.392 35.68 159.808 35.12C160.224 34.56 160.528 33.712 160.72 32.576C160.928 31.44 161.064 30.008 161.128 28.28L161.392 21.2H173.224V38H170.872V22.664L171.448 23.288H162.928L163.456 22.64L163.264 28.208C163.216 29.872 163.104 31.328 162.928 32.576C162.752 33.824 162.488 34.864 162.136 35.696C161.784 36.528 161.328 37.152 160.768 37.568C160.224 37.984 159.536 38.192 158.704 38.192ZM188.117 38V32.528L188.741 33.104H183.485C182.125 33.104 180.949 32.872 179.957 32.408C178.981 31.944 178.229 31.28 177.701 30.416C177.189 29.536 176.933 28.48 176.933 27.248C176.933 25.968 177.213 24.88 177.773 23.984C178.333 23.072 179.125 22.384 180.149 21.92C181.173 21.44 182.365 21.2 183.725 21.2H190.469V38H188.117ZM176.933 38L181.085 32.048H183.533L179.477 38H176.933ZM188.117 31.76V22.592L188.741 23.288H183.821C182.381 23.288 181.277 23.624 180.509 24.296C179.741 24.952 179.357 25.928 179.357 27.224C179.357 28.456 179.717 29.408 180.437 30.08C181.173 30.752 182.253 31.088 183.677 31.088H188.741L188.117 31.76ZM206.715 38L200.619 29.72L202.563 28.52L209.451 38H206.715ZM195.411 38V21.2H197.763V38H195.411ZM197.043 30.608V28.496H202.491V30.608H197.043ZM202.779 29.864L200.571 29.528L206.595 21.2H209.163L202.779 29.864ZM219.124 38.192C217.844 38.192 216.652 37.976 215.548 37.544C214.46 37.112 213.516 36.512 212.716 35.744C211.916 34.96 211.292 34.048 210.844 33.008C210.396 31.968 210.172 30.832 210.172 29.6C210.172 28.368 210.396 27.232 210.844 26.192C211.292 25.152 211.916 24.248 212.716 23.48C213.516 22.696 214.46 22.088 215.548 21.656C216.636 21.224 217.828 21.008 219.124 21.008C220.404 21.008 221.58 21.224 222.652 21.656C223.74 22.072 224.684 22.672 225.484 23.456C226.3 24.224 226.924 25.128 227.356 26.168C227.804 27.208 228.028 28.352 228.028 29.6C228.028 30.848 227.804 31.992 227.356 33.032C226.924 34.072 226.3 34.984 225.484 35.768C224.684 36.536 223.74 37.136 222.652 37.568C221.58 37.984 220.404 38.192 219.124 38.192ZM219.124 36.056C220.052 36.056 220.908 35.896 221.692 35.576C222.492 35.256 223.18 34.808 223.756 34.232C224.348 33.64 224.804 32.952 225.124 32.168C225.46 31.384 225.628 30.528 225.628 29.6C225.628 28.672 225.46 27.816 225.124 27.032C224.804 26.248 224.348 25.568 223.756 24.992C223.18 24.4 222.492 23.944 221.692 23.624C220.908 23.304 220.052 23.144 219.124 23.144C218.18 23.144 217.308 23.304 216.508 23.624C215.724 23.944 215.036 24.4 214.444 24.992C213.852 25.568 213.388 26.248 213.052 27.032C212.732 27.816 212.572 28.672 212.572 29.6C212.572 30.528 212.732 31.384 213.052 32.168C213.388 32.952 213.852 33.64 214.444 34.232C215.036 34.808 215.724 35.256 216.508 35.576C217.308 35.896 218.18 36.056 219.124 36.056ZM231.608 38V21.2H238.832C240.656 21.2 242.088 21.568 243.128 22.304C244.168 23.04 244.688 24.112 244.688 25.52C244.688 26.896 244.192 27.952 243.2 28.688C242.208 29.408 240.904 29.768 239.288 29.768L239.72 29.048C241.592 29.048 243.024 29.424 244.016 30.176C245.024 30.912 245.528 31.992 245.528 33.416C245.528 34.856 245 35.984 243.944 36.8C242.904 37.6 241.352 38 239.288 38H231.608ZM233.984 36.104H239.24C240.52 36.104 241.48 35.872 242.12 35.408C242.776 34.928 243.104 34.2 243.104 33.224C243.104 32.248 242.776 31.536 242.12 31.088C241.48 30.64 240.52 30.416 239.24 30.416H233.984V36.104ZM233.984 28.592H238.664C239.832 28.592 240.72 28.36 241.328 27.896C241.952 27.432 242.264 26.752 242.264 25.856C242.264 24.944 241.952 24.256 241.328 23.792C240.72 23.328 239.832 23.096 238.664 23.096H233.984V28.592ZM246.91 38L254.518 21.2H256.894L264.526 38H262.006L255.214 22.544H256.174L249.382 38H246.91ZM250.15 33.8L250.798 31.88H260.254L260.95 33.8H250.15Z" fill="white"/>
<path d="M282.516 55.5794C282.222 58.0996 280.087 60 277.549 60H265V0H283.383C286.374 0 288.696 2.60852 288.349 5.5794L282.516 55.5794Z" fill="#2E363E"/>
<path d="M12.5 60H29.5V112H11.2182C8.1917 112 5.8591 109.332 6.26287 106.333L12.5 60Z" fill="#F2F6FA"/>
<rect width="230" height="52" transform="translate(29.5 60)" fill="#F2F6FA"/>
<path d="M31.9687 92V79.4H37.2067C38.5387 79.4 39.5827 79.676 40.3387 80.228C41.1067 80.768 41.4907 81.566 41.4907 82.622C41.4907 83.666 41.1247 84.458 40.3927 84.998C39.6607 85.526 38.7007 85.79 37.5127 85.79L37.8187 85.34C39.2227 85.34 40.2907 85.616 41.0227 86.168C41.7547 86.72 42.1207 87.53 42.1207 88.598C42.1207 89.678 41.7367 90.518 40.9687 91.118C40.2127 91.706 39.0727 92 37.5487 92H31.9687ZM33.2827 90.938H37.5487C38.6167 90.938 39.4267 90.74 39.9787 90.344C40.5307 89.948 40.8067 89.336 40.8067 88.508C40.8067 87.692 40.5307 87.092 39.9787 86.708C39.4267 86.324 38.6167 86.132 37.5487 86.132H33.2827V90.938ZM33.2827 85.106H37.1347C38.1067 85.106 38.8507 84.914 39.3667 84.53C39.8947 84.134 40.1587 83.552 40.1587 82.784C40.1587 82.016 39.8947 81.44 39.3667 81.056C38.8507 80.66 38.1067 80.462 37.1347 80.462H33.2827V85.106ZM44.5971 92L50.3571 79.4H51.6711L57.4311 92H56.0271L50.7351 80.174H51.2751L45.9831 92H44.5971ZM46.8651 88.634L47.2611 87.554H54.5871L54.9831 88.634H46.8651ZM68.2437 90.848L67.9197 91.208V79.4H69.2337V91.208L68.8737 90.848H75.3357L74.9757 91.208V79.4H76.2897V92H60.8457V79.4H62.1597V91.208L61.8177 90.848H68.2437ZM85.3901 92L91.1501 79.4H92.4641L98.2241 92H96.8201L91.5281 80.174H92.0681L86.7761 92H85.3901ZM87.6581 88.634L88.0541 87.554H95.3801L95.7761 88.634H87.6581ZM103.313 86.132V85.034H110.279V86.132H103.313ZM104.897 79.292C105.797 79.292 106.625 79.454 107.381 79.778C108.137 80.09 108.797 80.534 109.361 81.11C109.937 81.686 110.381 82.364 110.693 83.144C111.005 83.924 111.161 84.776 111.161 85.7C111.161 86.624 111.005 87.476 110.693 88.256C110.381 89.036 109.937 89.714 109.361 90.29C108.797 90.866 108.137 91.316 107.381 91.64C106.625 91.952 105.797 92.108 104.897 92.108C103.937 92.108 103.043 91.952 102.215 91.64C101.387 91.328 100.697 90.866 100.145 90.254L100.973 89.408C101.501 89.948 102.089 90.338 102.737 90.578C103.385 90.806 104.087 90.92 104.843 90.92C105.551 90.92 106.205 90.788 106.805 90.524C107.417 90.26 107.945 89.894 108.389 89.426C108.845 88.958 109.199 88.412 109.451 87.788C109.703 87.152 109.829 86.456 109.829 85.7C109.829 84.944 109.703 84.254 109.451 83.63C109.199 82.994 108.845 82.442 108.389 81.974C107.945 81.506 107.417 81.14 106.805 80.876C106.205 80.612 105.551 80.48 104.843 80.48C104.087 80.48 103.385 80.6 102.737 80.84C102.089 81.08 101.501 81.464 100.973 81.992L100.145 81.146C100.697 80.534 101.387 80.072 102.215 79.76C103.043 79.448 103.937 79.292 104.897 79.292ZM115.348 92V79.4H120.064C121.132 79.4 122.05 79.574 122.818 79.922C123.586 80.258 124.174 80.75 124.582 81.398C125.002 82.034 125.212 82.808 125.212 83.72C125.212 84.608 125.002 85.376 124.582 86.024C124.174 86.66 123.586 87.152 122.818 87.5C122.05 87.848 121.132 88.022 120.064 88.022H116.086L116.68 87.392V92H115.348ZM116.68 87.5L116.086 86.852H120.028C121.288 86.852 122.242 86.582 122.89 86.042C123.55 85.49 123.88 84.716 123.88 83.72C123.88 82.712 123.55 81.932 122.89 81.38C122.242 80.828 121.288 80.552 120.028 80.552H116.086L116.68 79.922V87.5ZM134.635 92.108C133.687 92.108 132.805 91.952 131.989 91.64C131.185 91.316 130.483 90.866 129.883 90.29C129.295 89.702 128.833 89.024 128.497 88.256C128.173 87.476 128.011 86.624 128.011 85.7C128.011 84.776 128.173 83.93 128.497 83.162C128.833 82.382 129.295 81.704 129.883 81.128C130.483 80.54 131.185 80.09 131.989 79.778C132.793 79.454 133.675 79.292 134.635 79.292C135.583 79.292 136.459 79.454 137.263 79.778C138.067 80.09 138.763 80.534 139.351 81.11C139.951 81.686 140.413 82.364 140.737 83.144C141.073 83.924 141.241 84.776 141.241 85.7C141.241 86.624 141.073 87.476 140.737 88.256C140.413 89.036 139.951 89.714 139.351 90.29C138.763 90.866 138.067 91.316 137.263 91.64C136.459 91.952 135.583 92.108 134.635 92.108ZM134.635 90.92C135.391 90.92 136.087 90.794 136.723 90.542C137.371 90.278 137.929 89.912 138.397 89.444C138.877 88.964 139.249 88.412 139.513 87.788C139.777 87.152 139.909 86.456 139.909 85.7C139.909 84.944 139.777 84.254 139.513 83.63C139.249 82.994 138.877 82.442 138.397 81.974C137.929 81.494 137.371 81.128 136.723 80.876C136.087 80.612 135.391 80.48 134.635 80.48C133.879 80.48 133.177 80.612 132.529 80.876C131.881 81.128 131.317 81.494 130.837 81.974C130.369 82.442 129.997 82.994 129.721 83.63C129.457 84.254 129.325 84.944 129.325 85.7C129.325 86.444 129.457 87.134 129.721 87.77C129.997 88.406 130.369 88.964 130.837 89.444C131.317 89.912 131.881 90.278 132.529 90.542C133.177 90.794 133.879 90.92 134.635 90.92ZM153.438 91.37V80.552H147.408L147.3 83.612C147.264 84.56 147.204 85.472 147.12 86.348C147.048 87.212 146.928 87.992 146.76 88.688C146.604 89.372 146.388 89.93 146.112 90.362C145.848 90.794 145.5 91.046 145.068 91.118L143.61 90.848C144.09 90.872 144.486 90.698 144.798 90.326C145.122 89.954 145.368 89.432 145.536 88.76C145.716 88.088 145.848 87.302 145.932 86.402C146.016 85.502 146.076 84.53 146.112 83.486L146.256 79.4H154.752V91.37H153.438ZM143.142 94.826L143.16 90.848H156.642V94.826H155.4V92H144.402L144.384 94.826H143.142ZM160.359 92V79.4H161.673V89.84L169.737 79.4H170.943V92H169.629V81.578L161.565 92H160.359ZM174.701 90.488L175.187 89.534C175.739 90.014 176.357 90.374 177.041 90.614C177.737 90.842 178.433 90.962 179.129 90.974C179.825 90.974 180.461 90.872 181.037 90.668C181.625 90.464 182.099 90.164 182.459 89.768C182.819 89.36 182.999 88.868 182.999 88.292C182.999 87.56 182.705 86.996 182.117 86.6C181.541 86.204 180.737 86.006 179.705 86.006H177.005V84.926H179.633C180.521 84.926 181.211 84.74 181.703 84.368C182.207 83.984 182.459 83.456 182.459 82.784C182.459 82.304 182.315 81.896 182.027 81.56C181.751 81.212 181.367 80.948 180.875 80.768C180.395 80.576 179.855 80.474 179.255 80.462C178.655 80.438 178.031 80.516 177.383 80.696C176.747 80.864 176.129 81.134 175.529 81.506L175.097 80.408C175.841 79.964 176.615 79.658 177.419 79.49C178.223 79.31 179.003 79.25 179.759 79.31C180.515 79.37 181.193 79.544 181.793 79.832C182.405 80.12 182.891 80.498 183.251 80.966C183.611 81.434 183.791 81.992 183.791 82.64C183.791 83.24 183.635 83.768 183.323 84.224C183.023 84.68 182.597 85.034 182.045 85.286C181.505 85.526 180.863 85.646 180.119 85.646L180.191 85.25C181.031 85.25 181.757 85.382 182.369 85.646C182.993 85.91 183.473 86.288 183.809 86.78C184.157 87.26 184.331 87.824 184.331 88.472C184.331 89.084 184.175 89.63 183.863 90.11C183.563 90.578 183.143 90.974 182.603 91.298C182.075 91.61 181.481 91.838 180.821 91.982C180.161 92.114 179.471 92.15 178.751 92.09C178.031 92.03 177.323 91.874 176.627 91.622C175.931 91.358 175.289 90.98 174.701 90.488ZM186.785 92L192.545 79.4H193.859L199.619 92H198.215L192.923 80.174H193.463L188.171 92H186.785ZM189.053 88.634L189.449 87.554H196.775L197.171 88.634H189.053ZM203.033 92V79.4H204.347V89.84L212.411 79.4H213.617V92H212.303V81.578L204.239 92H203.033ZM208.289 78.482C207.389 78.482 206.675 78.278 206.147 77.87C205.631 77.462 205.367 76.892 205.355 76.16H206.345C206.357 76.64 206.537 77.018 206.885 77.294C207.245 77.57 207.713 77.708 208.289 77.708C208.865 77.708 209.327 77.57 209.675 77.294C210.035 77.018 210.221 76.64 210.233 76.16H211.223C211.211 76.892 210.941 77.462 210.413 77.87C209.885 78.278 209.177 78.482 208.289 78.482ZM228.085 79.4H229.399V92H228.085V79.4ZM220.201 92H218.869V79.4H220.201V92ZM228.211 86.186H220.057V85.016H228.211V86.186ZM235.84 85.034H242.5V86.168H235.84V85.034ZM235.984 90.848H243.562V92H234.652V79.4H243.292V80.552H235.984V90.848ZM247.518 92V79.4H252.234C253.302 79.4 254.22 79.574 254.988 79.922C255.756 80.258 256.344 80.75 256.752 81.398C257.172 82.034 257.382 82.808 257.382 83.72C257.382 84.608 257.172 85.376 256.752 86.024C256.344 86.66 255.756 87.152 254.988 87.5C254.22 87.848 253.302 88.022 252.234 88.022H248.256L248.85 87.392V92H247.518ZM248.85 87.5L248.256 86.852H252.198C253.458 86.852 254.412 86.582 255.06 86.042C255.72 85.49 256.05 84.716 256.05 83.72C256.05 82.712 255.72 81.932 255.06 81.38C254.412 80.828 253.458 80.552 252.198 80.552H248.256L248.85 79.922V87.5Z" fill="#2E363E"/>
<path d="M277.083 107.667C276.749 110.148 274.632 112 272.128 112H259.5V60H283.5L277.083 107.667Z" fill="#F2F6FA"/>
</svg>
